<?xml version="1.0" encoding="utf-8"?>
<!-- Generator: Adobe Illustrator 25.2.1, SVG Export Plug-In . SVG Version: 6.00 Build 0)  -->
<svg version="1.1" id="Camada_1" xmlns="http://www.w3.org/2000/svg" xmlns:xlink="http://www.w3.org/1999/xlink" x="0px" y="0px"
	 viewBox="0 0 1200 1200" enable-background="new 0 0 1200 1200" xml:space="preserve">
<g id="Camada_2_1_">
	<line fill="none" stroke="#E38A6A" stroke-width="60" stroke-miterlimit="10" x1="156" y1="447" x2="156" y2="606"/>
	<line fill="none" stroke="#E38A6A" stroke-width="60" stroke-miterlimit="10" x1="75" y1="523" x2="236.9" y2="523"/>
</g>
<g id="Camada_4">
	<line fill="none" stroke="#467BDE" stroke-width="55" stroke-miterlimit="10" x1="289.5" y1="576" x2="289.5" y2="813"/>
	<circle fill="none" stroke="#467BDE" stroke-width="50" stroke-miterlimit="10" cx="370" cy="587" r="77.5"/>
	<path fill="none" stroke="#467BDE" stroke-width="55" stroke-miterlimit="10" d="M617.5,505.5c-4.4-0.1-38.9-0.4-58,24
		c-9,11.5-12,25-12,25c-1.5,6.9-1.2,11.1-1,29c0.1,9-0.1,18,0,27c0.3,19.3,0.6,46.5,1,81"/>
	<line fill="none" stroke="#E38A6A" stroke-width="57" stroke-miterlimit="10" x1="950" y1="405" x2="950" y2="603"/>
	<path fill="none" stroke="#E38A6A" stroke-width="57" stroke-miterlimit="10" d="M951.1,581.8c-1,7.9-1.6,19.9,1,34
		c2.3,12.9,4,21.8,11,30c9.9,11.5,24.3,14.4,37,17c9.4,1.9,17.4,2.1,23,2"/>
	<line fill="none" stroke="#E38A6A" stroke-width="54" stroke-miterlimit="10" x1="886" y1="507" x2="1023" y2="507"/>
	<line fill="none" stroke="#E38A6A" stroke-width="54" stroke-miterlimit="10" x1="1091" y1="480" x2="1091" y2="605.1"/>
</g>
<g id="Camada_5">
	<circle fill="none" stroke="#467BDE" stroke-width="25" stroke-miterlimit="10" cx="369" cy="585" r="95.5"/>
	<ellipse fill="none" stroke="#467BDE" stroke-width="44" stroke-miterlimit="10" cx="750" cy="587" rx="75" ry="76"/>
	<path fill="none" stroke="#467BDE" stroke-width="44" stroke-miterlimit="10" d="M782,657c-3.6,2.3-33.8,20.7-68,8
		c-30.6-11.4-41.9-39.4-45-47c-4.1-10.1-8.8-27.3-5-48c1-5.5,5.1-24.5,21-42c3.1-3.4,12.2-12.8,27-20c6.5-3.1,21.2-10,41-9
		c21.4,1.1,36.3,10.8,44,16c1.9,1.3,10.8,7.4,20,18c5.8,6.7,10.9,12.6,14,22c1.4,4.2,2.2,8.8,3,13c0.2,1.2,1.2,6.7,2,15
		c0.8,8.2,0.9,14.4,1,22c0,2.6,0,2,0,18c0,0,0,6.8,0,16c0,6.3,0,12.7,0,19c0,11.3,0,22.7,0,34"/>
	<line fill="none" stroke="#467BDE" stroke-width="44" stroke-miterlimit="10" x1="825" y1="692" x2="825" y2="638.2"/>
	<circle fill="#E38A6A" stroke="#E38A6A" stroke-width="54" stroke-miterlimit="10" cx="1090.5" cy="419.5" r="2.5"/>
</g>
</svg>
