<?xml version="1.0" encoding="utf-8"?>
<!-- Generator: Adobe Illustrator 25.2.1, SVG Export Plug-In . SVG Version: 6.00 Build 0)  -->
<svg version="1.1" xmlns="http://www.w3.org/2000/svg" xmlns:xlink="http://www.w3.org/1999/xlink" x="0px" y="0px"
	 viewBox="0 0 600 200" enable-background="new 0 0 600 200" xml:space="preserve">
<g id="Camada_3">
	<polyline fill="#FFFFFF" points="40.1,71.5 50,64 57.9,56.2 70.4,51 78.5,45.9 83.1,44.5 85.4,44.5 86,46 88.8,46.3 93,43 101,41 
		110,39 112.9,39 115.6,40.7 120.5,40.7 126.3,37 137.6,37.4 154.4,41.3 164.6,45.5 177.5,54.1 196.6,70.4 201.4,78 204.9,87.3 
		206.5,89.5 206.5,95.4 208.9,103.3 203.9,113.2 200,117 198,126 196.1,133 191.5,138.6 186.9,142.3 179.7,143.1 174.1,146.4 
		165.3,147.4 164.1,147.4 173.6,158.1 175.2,161 172.8,163.4 167,163 151,150.2 147.6,145.8 134.8,142.9 128.2,138.4 115.4,142 
		104.6,145.2 91.7,144.3 81.5,141.6 78.4,140.7 72.8,132.5 65.6,131.7 53.6,127.9 44.5,122.1 34.3,111.9 32.2,106 33.4,101.5 
		31.5,96.8 33.2,79.6 38.4,71.5 43.1,67.2 46.8,65.2 49.1,65.8 	"/>
</g>
<g id="Camada_1">
	
		<text transform="matrix(1 0 0 1 244.2856 99.8569)" stroke="#FFFFFF" stroke-miterlimit="10" font-family="'youaremyeverythinkdisplayf'" font-size="30px">unzipping</text>
	
		<text transform="matrix(1 0 0 1 313.0713 128.6426)" stroke="#FFFFFF" stroke-miterlimit="10" font-family="'MakeNoSense'" font-size="50px">Thoughts</text>
</g>
<g id="Camada_2">
	<g>
		<g>
			<g>
				<path d="M158.4,125.8c2.4-0.6,4.7,0,7.1-0.3c5.4-1.7,10.7-3.6,16.4-4.5c3.8-1,8-3.6,12-2.6c9.8,2.5-0.8,20.1-6.4,22.5
					c-1.8,0.9-3.4,0.9-5.3,1.2c-5.4,2.4-10.9,5-17.1,4.5c-4.1,0-10,0.6-12.4-3.5c-0.4-0.6-1.3,0-0.9,0.6c5.4,7,21.1,4.4,28,0.6
					c3.3-1.6,7.1-0.9,10-3.4c5.6-4.5,15.1-19.9,4.4-23.4c-3.3-0.8-6.4,0.7-9.5,1.7c-6.7,1.6-13.4,3.5-20,5.5
					C163.7,124.6,155.3,124.2,158.4,125.8z"/>
			</g>
		</g>
		<g>
			<g>
				<path d="M163.2,147.9c2.7,3.2,5.6,6.1,8.7,8.8c2.9,1.7,3.2,4.3-0.2,6.1c-5.6,2-20.2-13.4-24.1-17.7c0,0.2,0,0.5,0,0.8
					c4.1-3.5,1.7-5.3,8-4.2c13.4,2.9,22.6-5.9,34.5-10.1c0.6-0.2,0.4-1.3-0.3-1c-10.1,2.7-19,12.4-30,10c-2.2-0.3-4.4,0.2-6.6-0.2
					c-2.2-0.8-3,0-3.9,2c-0.4,1.3-2.9,2.2-2.5,3.5c3.4,4,7.2,7.7,11.4,11c3.7,2.5,7.3,6.4,11.7,7.5c2.6,0.2,6.8-3.3,5.3-6
					c-1.5-2-3.8-3.2-5.4-5C168.8,152.9,162.6,144.4,163.2,147.9L163.2,147.9z"/>
			</g>
		</g>
		<g>
			<g>
				<path d="M169.7,131.5c-3.7,10.5-19.8,12.2-26.6,3.8c-0.7-0.7-3-2.1-1-2.9c4.4,0.2,7.7-3,11.2-5.2c2.3-1.4,4.7-1.8,7.4-1.8
					c2.4-2.1-5.3-0.6-6.1,0c-2.2,0.9-4,2.4-5.9,3.7c-2.4,2.8-9.6,1.4-8.9,4.3c2.3,3,5.5,6.1,9.1,7.6c8.1,2.2,18.8-0.3,21.7-9.1
					C170.9,131.1,169.9,130.9,169.7,131.5L169.7,131.5z"/>
			</g>
		</g>
		<g>
			<g>
				<path d="M145.7,144.8c-6.1-1.8-13.1-2.1-17.2-7.7c-2.9-0.5,2.1,3.6,2.8,4.1C131.4,142.3,148.8,147.6,145.7,144.8L145.7,144.8z"
					/>
			</g>
		</g>
		<g>
			<g>
				<path d="M141.2,132c-7.1-1.3-10.2,2.4-15,6.6c-13.2,2.4-22.7,9.3-36.4,3.9c0,0.3,0.1,0.6,0.1,1c14.4-8.8,21.1-1.8,18.1-6.5
					c-0.4,0.1-0.7,0.2-1,0.3c0.4,1.1,0.9,1.7,1.8,2.3c0.6,0.4,1.2-0.6,0.6-0.9c-0.4-0.5-0.9-1.1-1.4-1.6c-0.2-0.6-1.2-0.4-1,0.3
					c0.3,0.9,0.2,0.8,0.9,1.6c0.2-0.3,0.4-0.6,0.5-0.9c-6.9-1.9-13,1.7-19,4.6c-0.4,0.2-0.3,0.8,0.1,1c9,3.6,18.7,1.9,27.4-1.8
					c11.2-2.1,8.3-0.8,17-7.8c2.4-1,4.9-1,7.4-0.8C141.9,133.1,141.9,132,141.2,132L141.2,132z"/>
			</g>
		</g>
		<g>
			<g>
				<path d="M188,100.9c-6.7,9.6-10.4,3.8-17.9,7c-6.7,4.1-12.6,8.4-20.5,9.9c-6.5,0.3-11.7,3.2-16.3,7.6
					c-7.7,5.4-17.8,3.6-23.7-3.6c-0.4-0.6-1.2,0.2-0.8,0.8c4.4,5.4,11.2,8.2,18.1,6.8c8.2-1.9,12.9-9.9,21.8-10.2
					c8.3-1,15.2-5.8,22-10.2c3.8-2.2,6.9,0.8,10.6-0.8C182.9,108.1,191.8,100,188,100.9L188,100.9z"/>
			</g>
		</g>
		<g>
			<g>
				<path d="M111.6,134.6c1.5-0.8,3.4-0.8,4.9-1.8c0.8-0.4,6.6-4.5,3.5-4.1c-2,1.8-4.1,3.7-6.8,4.2c-0.9,0.2-1.7,0.4-2.4,0.9
					C110.3,134.3,111,135.1,111.6,134.6L111.6,134.6z"/>
			</g>
		</g>
		<g>
			<g>
				<path d="M161.7,96.9c-2.5-1.8-5.6-0.6-8,0.9c-0.7,0.9-12,6.2-8.4,6.3c4.9-1.8,10.4-9,15.8-6.3C161.7,98.2,162.2,97.3,161.7,96.9
					L161.7,96.9z"/>
			</g>
		</g>
		<g>
			<g>
				<path d="M146.6,95.1c-2.8,1.9-4.4,5.2-7.4,6.7c-3.6,1.4-6.8,4.3-11,3.4c-0.7-0.1-0.7,1,0,1.1c4.1,1,7.3-1.8,10.9-3.2
					c3.4-1.5,5-5,8-7C147.7,95.6,147.2,94.7,146.6,95.1L146.6,95.1z"/>
			</g>
		</g>
		<g>
			<g>
				<path d="M129,94.7c-0.7,1.4-0.3,2.9-1.3,4.2c-0.8,1.4-0.8,3-1.2,4.5c-2.7,7.2-11.2,11.5-18.6,9.4c-1.3-1.3-3-0.4-4.2,0.6
					c-1.6,1.1-3.6,3.2-5.6,3.2c-0.7,0-0.7,1.1,0,1.1c2.8-0.1,4.7-2.6,7-3.9c1.3-0.8,1.8,0.1,2.9,0.4c3.6,0.7,7.6,0,11.1-1.2
					c4.5-2.5,8.6-6.8,9-12.1c0.3-1.1,1.1-1.8,1.4-2.8c0.3-0.9,0-1.8,0.4-2.7C130.2,94.6,129.3,94.1,129,94.7L129,94.7z"/>
			</g>
		</g>
		<g>
			<g>
				<path d="M96.4,120.1c5,3,8.5-3.1,11.6-6c0.5-0.4-0.2-1.2-0.8-0.8c-2.9,2.4-5.8,8.3-10.3,5.8C96.4,118.7,95.9,119.7,96.4,120.1
					L96.4,120.1z"/>
			</g>
		</g>
		<g>
			<g>
				<path d="M89.4,122c5.9-1.1,5.7,4.2,1.7,6.8c-0.7,1.9,1.8,0.2,2.4-0.7c-0.3-0.1-0.6-0.2-0.9-0.4c0.4,2.8-0.7,5.5-2.7,7.4
					c-0.5,0.5,0.3,1.3,0.8,0.8c2.2-2.2,3.5-5.1,3-8.2c-0.6-1.5-1.6,0.7-2.4,0.9c0.2,0.3,0.4,0.6,0.6,0.8c1.8-1.5,3.7-3.4,3.2-5.9
					C95.2,120.1,86.8,120.1,89.4,122z"/>
			</g>
		</g>
		<g>
			<g>
				<path d="M177.5,99.1c7.1-6.8,4.5-11,2.4-19.3c-0.3,0.1-0.6,0.3-1,0.4c5.3,6.7,14.5,10.3,17.3,19.3c3.8,1.9-4.7-10.1-5.9-10.5
					c-3.2-3.4-8-5.3-10.5-9.3c-0.2-0.6-1.2-0.2-1,0.4c1,2.3,1.2,4.7,1.6,7.1c2.4,4-0.9,8.2-3.7,11.1C176.3,98.8,177,99.5,177.5,99.1
					L177.5,99.1z"/>
			</g>
		</g>
		<g>
			<g>
				<path d="M166.8,63.8c-0.5,3.7-0.2,7.2,0.8,10.8c-0.1,6.3-3.7,12.1-6.4,17.6c0.6,4.2,6.9-12.2,7-13.4c1.3-5-1.4-9.7-0.3-14.8
					C168,63.1,166.9,63.1,166.8,63.8L166.8,63.8z"/>
			</g>
		</g>
		<g>
			<g>
				<path d="M145.8,64.3c-6.9,3.1-5,11.9-8.5,17c-0.3,0.3-0.2,0.8,0.2,0.9c5.2,1.2,11.4,2.2,15.3-2.3c0.4-0.5-0.2-1.2-0.8-0.8
					c-5.2,5.6-12.1,0.9-18.3,2.7c-3.1,1.3-5.9,2.4-9.3,2.8c-5.9,0.6-5.8-8.7-2-11.2c0.6-0.4,0-1.3-0.6-0.9c-1.7,1-2.7,2.6-3.1,4.5
					c-0.6,2.8,1.2,7.1-0.8,9.2c-2.1,2.3-6.3,3-9.3,3c-5.6,1-8.7-10.7-9.1-6.7c2.5,6.7,5.9,9.2,13.1,8.5c-0.1-0.3-0.2-0.7-0.3-1
					c-7.4,3.6-6.2,8.6-0.4,0.8c0.4-0.6-0.6-1.1-0.9-0.6c-1,1.6-2.2,2.8-3.8,3.7c0.2,0.3,0.4,0.6,0.6,0.8c0.4-1.4,7-4.3,4.7-4.9
					c-6.2,1-10.1-2.4-12.2-8c-0.3,0.2-0.6,0.4-0.9,0.6c1.4,2.3,2.8,6.4,5.6,7.4c4.8,1.2,12.2,0.1,14.8-4.6c0.6-4-2-9.3,2.5-11.9
					c-0.2-0.3-0.4-0.6-0.6-0.9c-3.1,2-3.7,6.7-2.8,10.1c2.1,5.8,9.9,2.3,14,0.8c6.8-3.1,13,3.2,19.8-3.4c-0.2-0.2-0.5-0.5-0.8-0.8
					c-3.7,4.2-9.4,3.2-14.3,2c0.1,0.3,0.2,0.6,0.2,0.9c3.6-5.2,1.5-13.6,8.3-16.9C147,64.9,146.4,63.9,145.8,64.3L145.8,64.3z"/>
			</g>
		</g>
		<g>
			<g>
				<path d="M116,87.8c0,0.1-0.2,0.3-0.2,0.2c0,0-0.1,0-0.1,0.1c-0.2,0.1-0.4,0.2-0.5,0.2c-0.9,0.3-1.5,1.1-2.3,1.6
					c-0.8,0.1-1.6,0.8-0.4,1.2c0.9,0,1.7-0.8,2.3-1.3c0.7-0.5,1.5-0.6,2-1.2C117.2,88.1,116.5,87.3,116,87.8L116,87.8z"/>
			</g>
		</g>
		<g>
			<g>
				<path d="M92.9,143.7c-3.1-1.8-6.5-1.3-9.9-2.1c-4.4-1-6.8-4.7-9-8.3c-2.1-3.5-6-7-5.6-11.3c-0.1-4.1,3.3-6,5.6-8.9
					c3.7-7,9.2-12.7,17.3-14c6.1-1.6,12.8-2.8,13.8-10.2c0.1-0.7-1-1-1-0.3c-2.3,12.5-21.9,6.7-27.8,19c-2.9,6.5-11,9.4-8.9,17.5
					c1.4,3.6,4.4,6.2,6.2,9.6c1.8,3,4,6.1,7.4,7.5c3.7,1.5,7.9,0.4,11.4,2.5C92.9,145,93.5,144.1,92.9,143.7L92.9,143.7z"/>
			</g>
		</g>
		<g>
			<g>
				<path d="M61.2,103c5.2,1.2,8,6.3,12.8,7.8c1.7,0.2,1.8-1.2,2.8-2.2c6.8-4.6,0.2-12.7-1.1-18.6c-2.9-2.2,2.3,9.1,2.4,10.2
					c2.1,4.7-0.3,5.8-3,9c-2,1.7-4.3-1.7-5.8-2.8C68.6,105.4,59.3,99.6,61.2,103z"/>
			</g>
		</g>
		<g>
			<g>
				<path d="M72.8,82.2c4.7,5.3,8.1,12.7,8.5,19.8c-0.1,0.7,1,0.7,1.1,0C84.1,99.8,73.7,76.8,72.8,82.2L72.8,82.2z"/>
			</g>
		</g>
		<g>
			<g>
				<path d="M153.2,49.9c9.5-2.4,15.3,6.6,22.9,9.9c0.7,0.2,1-0.8,0.3-1c-2.2-0.6-3.9-2.1-5.6-3.5c-4.8-4.3-11.2-7.8-17.9-6.4
					C152.2,49,152.5,50.1,153.2,49.9z"/>
			</g>
		</g>
		<g>
			<g>
				<path d="M135.1,42.4c4.5-1.5,15.4,7.9,13.7,12c-0.2,0.3-0.4,0.6-0.5,0.9c3.8,1.1,5.8,4.6,7.7,7.7c3.9,1.4-5.2-9.5-7.4-8.8
					c-0.5-0.1-1,0.6-0.5,0.9c5.1,1.5,0.4-6.4-1.2-7.8c-3-3.4-7.2-6.7-12-6C134.2,41.5,134.4,42.5,135.1,42.4z"/>
			</g>
		</g>
		<g>
			<g>
				<path d="M132.7,56.1c0.7,0.8,1.1,2.3,0,3c-0.6,0.3,0,1.3,0.5,0.9c0.9-0.4,7.8-3.5,4.8-3.9c-1.7,1.2-3.4,2.2-5.3,3
					c0.2,0.3,0.4,0.6,0.6,0.9C136.5,58.5,132.6,52.9,132.7,56.1L132.7,56.1z"/>
			</g>
		</g>
		<g>
			<g>
				<path d="M108.3,46.2c2.4-1.7,6.6-1.3,7.3,2c0.7,1.4,3.2-2.8,4.6-3c0.6-0.3,0.1-1.2-0.6-0.9c-6.9,2.1-3.1,15.4-8.2,12.7
					c-0.2,0.3-0.4,0.5-0.6,0.8c3.3-0.1,3.8,3.1,3.8,5.8c1.9,2.4,0.7-4.4,0.1-5c-0.3-1.1-4.6-2.9-4.2-1c1.9,2.4,5.1-0.2,5.1-2.6
					c0.3-3.6,0.6-8.1,4.5-9.7c-0.2-0.3-0.4-0.6-0.5-0.9c-1.6,0.8-2.9,2-4,3.4c0.3,0,0.6,0.1,1,0.1C115.4,41.1,104.6,45.5,108.3,46.2
					z"/>
			</g>
		</g>
		<g>
			<g>
				<path d="M178.9,56.7c7.9,6.3,16.6,12,21.6,21c0.4,1.3-0.8,2.2-1.4,3.3c-0.7,1.3-1.1,2.7-1.3,4.1c0.8,3,2.6-5.2,3.8-5.8
					c-0.3,0-0.6,0-0.9,0c3.4,5.2,4.2,6.4,1.2,12.2c0.3-0.1,0.5-0.2,0.8-0.3c-1.4-1.1-2.8-2.2-4.2-3.2c-0.2,0.3-0.4,0.6-0.6,0.9
					c2.8,1.8,4.3,4.6,4.2,7.9c0.4,0,0.7-0.1,1.1-0.2c-0.2-1.3-1.1-9.2,2.2-7.6c1.2,0.6,0.2,4.4,0.3,5.4c4.7,7,1.4,15.8-5.2,20.4
					c-2,0.4-3.8,8.8-1.4,6.6c-0.1-4.8,3.7-6.7,6.5-9.7c3.2-4.4,4.8-10.8,2.1-15.6c-1.4-3-0.1-6.3-2.2-9.1c-0.1-0.2-0.5-0.4-0.7-0.2
					c-3.4,2.5-3.2,6.4-2.6,10.2c0.1,0.6,1,0.4,1.1-0.2c0.1-3.7-1.6-6.8-4.7-8.8c-0.6-0.4-1.1,0.5-0.6,0.9c1.3,0.5,4,4.1,5,2.9
					c3.7-6,2.2-7.5-1.3-13c-1.6-1.1-3.4,5-3.8,6.3c0.4,0.1,0.7,0.2,1,0.3c0-4.3,5.8-6.2,1.3-10c-5-8.4-13.2-13.2-20.5-19.4
					C179.2,55.4,178.4,56.2,178.9,56.7L178.9,56.7z"/>
			</g>
		</g>
		<g>
			<g>
				<path d="M103.1,72.2c-2.2-4.5-5.2-8.1-9.2-11c-0.2,0.3-0.4,0.6-0.6,0.9c1.4,0.2,4.9,5.2,5.4,3.3c-0.4-19.4,19.2-14.8,1-24.1
					c0,0.4,0,0.7,0,1c5.1-1.7,10.9-5.5,16-1.6c0-0.3,0.1-0.6,0.1-1c-1-0.2-8.4,2.5-5.1,3c4.3-2.3,10.4-3.1,12.6,2.6
					c0.2,0.5,1.1,0.5,1.1-0.2c-0.1-1.9-1-1.8-1.7-3.3c-1.3-0.5-1.3-1.2-0.1-2c4.4-4.9,12.7-1.6,18.4-1c15.6,1.1,30.5,9.5,41.2,20.7
					c0.4,0.6,1.2-0.2,0.8-0.8c-9.6-10.4-23.3-18-37.3-20.4c-7.8-1-19.6-5.5-25.4,1.8c-0.2,2.2,2.9,2.6,3,5c0.4,0,0.7-0.1,1.1-0.2
					c-2.4-6.2-9.1-6-14.2-3.2c0.2,0.3,0.4,0.6,0.6,0.9c0.9-1.3,6.9-1.6,5.5-3c-5.4-4.1-11.4-0.2-16.8,1.6c-0.5,0.2-0.5,0.8,0,1
					c15.9,6.9-2.5,4.9-1.8,23c0.3-0.1,0.6-0.2,0.9-0.4c-0.6-0.7-6.2-5.9-5.3-2.9c3.9,2.8,6.8,6.3,8.8,10.6
					C102.4,73.4,103.4,72.8,103.1,72.2L103.1,72.2z"/>
			</g>
		</g>
		<g>
			<g>
				<path d="M88.2,89.7c-0.3-4-0.6-8.2-2.2-11.9c-1-2.2-3-4-3.2-6.5c0.1-2.5,0.6-5.1,0.1-7.7c-1.4-5.8,1.3-7.6,4.3-11.7
					c1.5-7.2,4.7-7.8,11.3-9.3c0.7-0.2,0.4-1.2-0.3-1c-5.3,1.1-11.5,2.8-11.8,9.4c-6.1,7.7-5.1,7.4-4.5,16.9
					c-1.6,5.4,2.9,8.5,4,13.4C86.8,82.3,86.4,92.4,88.2,89.7L88.2,89.7z"/>
			</g>
		</g>
		<g>
			<g>
				<path d="M49.5,69.4c8,2,10.5-10.1,18.1-10.3c3.4,0.4,4.9-1.9,7.6-3.2c2.1-0.6,5-0.8,6.5,1.1c0.4,0.6,1.4,0,0.9-0.6
					c-2.2-2.9-6.4-2.3-9.4-1c-1.7,2.4-4.4,2.5-7.1,2.7c-6.3,1-9.8,11.9-16.3,10.2C49.1,68.2,48.8,69.3,49.5,69.4z"/>
			</g>
		</g>
		<g>
			<g>
				<path d="M53.2,93.6c14.4-5.1,5.2-10.1,14.6-16.8c4.8-2.1,10.2-0.8,14.9-2.8c0.6-0.3,0.1-1.2-0.6-0.9
					c-9.8,2.8-19.1-0.5-21.1,13.2C61.8,90.2,49.3,92.9,53.2,93.6z"/>
			</g>
		</g>
		<g>
			<g>
				<path d="M73.7,62.6c5.6-0.3,11,3.6,7.8,9.5c0.3,0,0.6-0.1,0.8-0.1c-0.5-6.9-8.4-6.3-5.9-4.6c5.6-0.5,3.9,6.9,6,5.3
					C88,61.6,70.8,60.1,73.7,62.6z"/>
			</g>
		</g>
		<g>
			<g>
				<path d="M88,45.7c-2.3,1.1-2.1-1.5-3.4-1.8c-3.3-1.2-6.8,2.7-9.4,4.5C69.2,52.6,61.8,53,56,57.5c-2.9,2.3-5,5.7-8.3,7.3
					c-7.9,2.8-13.8,11.1-16,19c-0.5,5.4-0.8,10.8,0.4,16.2c0.8,3.4-0.5,6.8,0.9,10.2c8.8,12.4,23.4,22.2,39,22.6
					c0.7,0.1,0.7-1,0-1.1c-14-0.2-25.8-8.4-35.2-18.1c-2.8-3-3.4-5.7-3.2-9.6c0.1-2.6-0.8-4.6-1.2-7c-0.4-2.4,0.8-4.6,0.6-7
					c-1.8-7.7,3.7-14.4,8.3-19.9c2.5-2.6,5.2-3,8.1-4.7c2.1-1.2,3.4-3.4,5.1-5.1c4.5-4.6,10.7-6.2,16.6-8.1
					c3.8-1.6,6.6-4.8,10.2-6.6c6.4-2.2,1.9-0.2,4.3,0.7c1.4,0.6,1.6,1.1,3,0.4C89.2,46.3,88.6,45.4,88,45.7L88,45.7z"/>
			</g>
		</g>
		<g>
			<g>
				<path d="M47,105.5c5,2.4,2.1,10.9,7.3,13.2c0.1-0.3,0.2-0.7,0.3-1c-2.4-0.1-5.2,1.2-7.3,0c-3.1-2.5-7.1-4.7-7.8-9
					c-0.8-1.1,0.7-9-1.3-6.9c-2.3,7.2,2.8,12.6,8.4,16.3c0.2,0.5-0.6,0.7-0.9,1c-0.6,0.4-1,1.1-1.2,1.8c-0.2,0.7,0.9,1,1,0.3
					c0.2-1.5,2.9-1.6,2.2-3.3c-5.1-4.2-10.8-8.1-8.6-15.7c-0.4,0-0.7-0.1-1.1-0.2c-0.9,5.8,0.9,11.7,6.1,14.8c1.7,1.4,3.5,3.2,6,2.4
					c0.9-0.3,5.9,0.2,4.7-1.4c-4.9-2.5-2-11.7-7.9-13.4C46.2,104.4,46.2,105.5,47,105.5z"/>
			</g>
		</g>
		<g>
			<g>
				<path d="M32.4,92.2c1.3-1.5,3.1-2.5,4.4-4.1c0.6-0.6,3.1-8.1,0.8-6c-0.5,1.8-0.7,3.9-1.8,5.5C35.4,88.4,29.2,92.5,32.4,92.2
					L32.4,92.2z"/>
			</g>
		</g>
		<g>
			<g>
				<path d="M35.4,78.9c0.7-0.6,9.1-3.4,5.8-3.9C40.5,75.6,32.2,78.4,35.4,78.9z"/>
			</g>
		</g>
		<g>
			<g>
				<path d="M50,64c-5.4,4.4-2.4,11.5-4.5,17.1c-0.3,0.6,0.6,1.2,0.9,0.6c2.3-5.4-0.9-12.5,4.3-16.8C51.3,64.3,50.6,63.5,50,64
					L50,64z"/>
			</g>
		</g>
	</g>
</g>
</svg>
