<?xml version="1.0" encoding="utf-8"?>
<!-- Generator: Adobe Illustrator 25.2.1, SVG Export Plug-In . SVG Version: 6.00 Build 0)  -->
<svg version="1.1" id="Camada_1" xmlns="http://www.w3.org/2000/svg" xmlns:xlink="http://www.w3.org/1999/xlink" x="0px" y="0px"
	 viewBox="0 0 1200 1200" style="enable-background:new 0 0 1200 1200;" xml:space="preserve">
<style type="text/css">
	.st0{fill:none;stroke:#6158B0;stroke-width:50;stroke-miterlimit:10;}
	.st1{fill:none;stroke:#000000;stroke-width:50;stroke-miterlimit:10;}
	.st2{stroke:#000000;stroke-width:9;stroke-miterlimit:10;}
	.st3{stroke:#000000;stroke-width:14;stroke-miterlimit:10;}
</style>
<g id="Camada_1_1_">
</g>
<g id="Camada_3">
	<polyline class="st0" points="189,57 98,154 98,376.6 98,419 207,528 	"/>
</g>
<g id="Camada_4">
	<polyline class="st0" points="456,63 554,164 557,424 456,528 	"/>
</g>
<g id="Camada_5">
	<line class="st1" x1="218" y1="266" x2="437" y2="266"/>
	<line class="st1" x1="281" y1="188" x2="281" y2="422"/>
	<line class="st1" x1="371.4" y1="188" x2="371.4" y2="422"/>
	<line class="st1" x1="222" y1="352" x2="441" y2="352"/>
</g>
<g id="Camada_6">
	<g>
		<path class="st2" d="M134.7,672.9h80.4v31.6h-80.4V672.9z M163.1,840.2c-6.7-8-10.1-19.7-10.1-35.3V621h35.1v184.2
			c0,4.4,0.9,7.7,2.6,10c1.7,2.3,4.2,3.5,7.6,3.5h16.8v33.3h-20.3C180.4,852.2,169.8,848.2,163.1,840.2z"/>
		<path class="st2" d="M304.2,844.6c-11.7-6.2-20.6-15.3-26.7-27.2s-9.2-26.4-9.2-43.4v-20.1c0-17.6,3-32.7,8.9-45.2
			s14.5-22,25.7-28.5c11.2-6.5,24.8-9.8,40.6-9.8c14.9,0,27.6,3.7,38.2,11.2c10.5,7.5,18.6,18.2,24.1,32.3s8.3,31,8.3,50.7v11.7
			H293.8V748h87c-1-14.5-4.8-25.9-11.3-34s-15.1-12.1-26-12.1c-13.3,0-23.6,4.4-30.9,13.1c-7.3,8.7-10.9,21-10.9,37v22.7
			c0,14.8,3.9,26.1,11.7,34c7.8,7.9,18.9,11.9,33.2,11.9c7.1,0,14.1-1.4,21.1-4.3c7-2.9,13.2-6.9,18.7-12l23,23
			c-8.8,8.5-18.7,15-29.7,19.7s-22.1,7-33.2,7C330,853.9,315.9,850.8,304.2,844.6z"/>
		<path class="st2" d="M503.2,781.4c0,12.5,3.2,22.2,9.5,29c6.4,6.8,15.3,10.2,26.9,10.2c11.5,0,20.3-3,26.6-9.1
			c6.3-6.1,9.5-14.7,9.5-26l2.4,37.3c-3.7,8.8-9.6,16.2-17.9,22.2c-8.2,6-18.4,8.9-30.4,8.9c-19.7,0-34.9-6.3-45.6-19
			c-10.7-12.7-16.1-30.5-16.1-53.5V672.9h35.1L503.2,781.4L503.2,781.4z M575.7,672.9h34.9v178.4h-34.9V672.9z"/>
	</g>
	<g>
		<path class="st3" d="M137.4,984.7h89.2v29.9h-89.2V984.7z M156.3,960.5c0-15.8,3.6-27.6,10.9-35.5c7.3-7.8,18.5-11.8,33.6-11.8
			h25.8v33.3h-25.1c-3.3,0-5.8,1.3-7.6,3.8s-2.6,5.8-2.6,9.8v203h-35.1V960.5z"/>
		<path class="st3" d="M305.7,1093.2c0,12.5,3.2,22.1,9.5,29c6.4,6.8,15.3,10.2,26.9,10.2c11.5,0,20.3-3,26.6-9.1s9.5-14.7,9.5-25.9
			l2.4,37.3c-3.7,8.8-9.6,16.2-17.9,22.2c-8.2,6-18.4,8.9-30.4,8.9c-19.7,0-34.9-6.3-45.6-19c-10.7-12.7-16.1-30.5-16.1-53.5V984.7
			h35.1L305.7,1093.2L305.7,1093.2z M378.2,984.7h34.9v178.4h-34.9V984.7z"/>
		<path class="st3" d="M467.4,984.7h80.4v31.6h-80.4V984.7z M495.8,1152.1c-6.7-8-10-19.7-10-35.3V932.8h35.1v184.3
			c0,4.4,0.9,7.7,2.6,10.1c1.7,2.3,4.2,3.5,7.6,3.5h16.8v33.3h-20.3C513.1,1164,502.5,1160,495.8,1152.1z"/>
		<path class="st3" d="M645.8,1093.2c0,12.5,3.2,22.1,9.5,29s15.3,10.2,26.9,10.2c11.5,0,20.3-3,26.6-9.1s9.5-14.7,9.5-25.9
			l2.4,37.3c-3.7,8.8-9.6,16.2-17.9,22.2c-8.2,6-18.4,8.9-30.4,8.9c-19.7,0-34.9-6.3-45.6-19s-16.1-30.5-16.1-53.5V984.7h35.1
			V1093.2z M718.3,984.7h34.9v178.4h-34.9V984.7z"/>
		<path class="st3" d="M821.3,984.7h35.1v178.4h-35.1V984.7z M907.8,1018.4c-4.7-2-10.1-2.9-16.3-2.9c-11.1,0-19.7,3.1-25.9,9.2
			c-6.1,6.1-9.2,14.6-9.2,25.5l-3.6-34.4c5.5-10.7,12.6-18.9,21.3-24.8c8.7-5.9,18.3-8.8,28.9-8.8c8.1,0,15.5,1.2,22.1,3.5
			c6.6,2.3,12.3,5.8,17.3,10.4l-22.9,30.9C916.3,1023.2,912.5,1020.4,907.8,1018.4z"/>
		<path class="st3" d="M1011.6,1156.6c-11-6.1-19.4-14.9-25.2-26.6s-8.7-25.6-8.7-42V1059c0-16.2,2.9-30,8.7-41.5
			s14.2-20.3,25.2-26.3s24.2-9,39.7-9s28.7,3,39.7,9s19.4,14.8,25.2,26.3c5.8,11.5,8.7,25.3,8.7,41.5v29.6c0,16.3-2.9,30.2-8.7,41.7
			s-14.2,20.3-25.2,26.4s-24.2,9.1-39.7,9.1S1022.6,1162.7,1011.6,1156.6z M1079.7,1120.9c6.7-7.7,10.1-18.4,10.1-32.3V1059
			c0-13.9-3.3-24.6-10.1-32.1s-16.2-11.3-28.4-11.3s-21.7,3.8-28.5,11.3c-6.7,7.6-10,18.3-10,32.1v29.6c0,13.9,3.3,24.6,10,32.3
			c6.7,7.7,16.2,11.5,28.5,11.5S1073,1128.5,1079.7,1120.9z"/>
	</g>
</g>
</svg>
