<?xml version="1.0" encoding="utf-8"?>
<!-- Generator: Adobe Illustrator 25.2.1, SVG Export Plug-In . SVG Version: 6.00 Build 0)  -->
<svg version="1.1" id="Camada_2" xmlns="http://www.w3.org/2000/svg" xmlns:xlink="http://www.w3.org/1999/xlink" x="0px" y="0px"
	 viewBox="0 0 48 48" enable-background="new 0 0 48 48" xml:space="preserve">
<polyline fill="#FFFFFF" points="4.24,16.06 6.73,14.19 8.68,12.25 11.82,10.94 13.83,9.66 14.99,9.31 15.56,9.31 15.72,9.69 
	16.43,9.76 17.47,8.94 19.47,8.44 21.72,7.94 22.44,7.94 23.13,8.37 24.35,8.37 25.81,7.43 28.61,7.54 32.81,8.51 35.38,9.57 
	38.6,11.72 43.37,15.8 44.56,17.7 45.45,20.02 45.85,20.57 45.85,22.04 46.44,24.01 45.2,26.49 44.22,27.44 43.72,29.69 
	43.24,31.43 42.09,32.84 40.96,33.76 39.14,33.97 37.75,34.79 35.54,35.04 35.25,35.04 37.62,37.72 38.02,38.44 37.43,39.05 
	35.97,38.94 31.96,35.74 31.13,34.64 27.91,33.92 26.26,32.8 23.07,33.68 20.38,34.49 17.15,34.27 14.6,33.6 13.81,33.35 
	12.41,31.32 10.63,31.11 7.62,30.17 5.34,28.73 2.8,26.17 2.28,24.69 2.56,23.56 2.1,22.38 2.53,18.09 3.81,16.07 5,15 5.91,14.49 
	6.5,14.64 "/>
<g>
	<g>
		<g>
			<path d="M33.81,29.63c0.59-0.16,1.18,0,1.78-0.08c1.36-0.43,2.67-0.9,4.09-1.13c0.95-0.24,1.99-0.89,3-0.66
				c2.46,0.62-0.19,5.02-1.6,5.63c-0.44,0.22-0.86,0.22-1.33,0.3c-1.36,0.61-2.71,1.26-4.27,1.12c-1.03,0-2.49,0.14-3.09-0.88
				c-0.09-0.15-0.32-0.01-0.23,0.14c1.35,1.76,5.27,1.1,7,0.16c0.83-0.39,1.77-0.24,2.5-0.86c1.4-1.13,3.78-4.96,1.09-5.85
				c-0.83-0.19-1.61,0.17-2.37,0.43c-1.69,0.39-3.35,0.87-5,1.37C35.15,29.33,33.05,29.23,33.81,29.63z"/>
		</g>
	</g>
	<g>
		<g>
			<path d="M35.03,35.16c0.67,0.79,1.39,1.52,2.17,2.19c0.72,0.43,0.8,1.08-0.04,1.53c-1.4,0.49-5.05-3.36-6.03-4.43
				c0,0.06,0,0.13,0,0.19c1.03-0.87,0.41-1.31,1.99-1.06c3.34,0.72,5.64-1.47,8.62-2.52c0.16-0.06,0.09-0.32-0.07-0.26
				c-2.54,0.68-4.75,3.11-7.49,2.51c-0.55-0.07-1.1,0.04-1.65-0.05c-0.56-0.2-0.76,0-0.97,0.5c-0.11,0.32-0.72,0.56-0.62,0.87
				c0.86,1,1.81,1.93,2.84,2.76c0.93,0.64,1.81,1.6,2.93,1.88c0.64,0.05,1.69-0.82,1.33-1.5c-0.37-0.5-0.94-0.8-1.36-1.26
				C36.43,36.42,34.88,34.29,35.03,35.16L35.03,35.16z"/>
		</g>
	</g>
	<g>
		<g>
			<path d="M36.64,31.06c-0.93,2.62-4.96,3.05-6.64,0.95c-0.18-0.18-0.75-0.53-0.24-0.72c1.1,0.06,1.94-0.75,2.81-1.3
				c0.58-0.34,1.18-0.45,1.84-0.46c0.6-0.53-1.32-0.15-1.52-0.01c-0.54,0.23-0.99,0.6-1.47,0.92c-0.61,0.69-2.39,0.36-2.22,1.07
				c0.58,0.76,1.37,1.53,2.27,1.9c2.03,0.54,4.71-0.08,5.43-2.28C36.95,30.97,36.69,30.9,36.64,31.06L36.64,31.06z"/>
		</g>
	</g>
	<g>
		<g>
			<path d="M30.64,34.39c-1.53-0.46-3.28-0.53-4.31-1.92c-0.72-0.13,0.52,0.89,0.69,1.02C27.08,33.77,31.43,35.1,30.64,34.39
				L30.64,34.39z"/>
		</g>
	</g>
	<g>
		<g>
			<path d="M29.52,31.18c-1.78-0.32-2.55,0.61-3.75,1.64c-3.3,0.59-5.68,2.32-9.11,0.98c0.01,0.08,0.02,0.16,0.03,0.25
				c3.6-2.19,5.27-0.45,4.53-1.63c-0.09,0.02-0.17,0.05-0.26,0.07c0.1,0.27,0.22,0.42,0.46,0.57c0.15,0.09,0.29-0.15,0.14-0.23
				c-0.11-0.13-0.23-0.27-0.34-0.4c-0.06-0.16-0.31-0.1-0.26,0.07c0.07,0.23,0.06,0.21,0.22,0.39c0.04-0.08,0.09-0.15,0.13-0.23
				c-1.71-0.48-3.26,0.43-4.75,1.16c-0.11,0.05-0.07,0.21,0.03,0.25c2.25,0.89,4.68,0.48,6.84-0.46c2.8-0.53,2.06-0.2,4.24-1.96
				c0.59-0.25,1.23-0.25,1.85-0.19C29.69,31.46,29.69,31.19,29.52,31.18L29.52,31.18z"/>
		</g>
	</g>
	<g>
		<g>
			<path d="M41.22,23.41c-1.68,2.41-2.6,0.94-4.47,1.74c-1.68,1.02-3.15,2.11-5.13,2.48c-1.61,0.08-2.93,0.81-4.08,1.89
				c-1.93,1.35-4.46,0.91-5.92-0.9c-0.11-0.14-0.3,0.06-0.19,0.19c1.09,1.36,2.79,2.04,4.52,1.69c2.05-0.48,3.23-2.46,5.44-2.56
				c2.08-0.26,3.79-1.45,5.5-2.55c0.96-0.55,1.72,0.2,2.66-0.2C39.94,25.21,42.17,23.2,41.22,23.41L41.22,23.41z"/>
		</g>
	</g>
	<g>
		<g>
			<path d="M22.12,31.84c0.38-0.21,0.85-0.2,1.22-0.46c0.19-0.1,1.65-1.12,0.88-1.03c-0.5,0.44-1.02,0.92-1.69,1.06
				c-0.22,0.05-0.42,0.09-0.6,0.23C21.79,31.76,21.98,31.95,22.12,31.84L22.12,31.84z"/>
		</g>
	</g>
	<g>
		<g>
			<path d="M34.64,22.4c-0.63-0.46-1.41-0.14-1.99,0.22c-0.18,0.23-3.01,1.56-2.09,1.58c1.24-0.45,2.6-2.25,3.95-1.57
				C34.65,22.73,34.78,22.5,34.64,22.4L34.64,22.4z"/>
		</g>
	</g>
	<g>
		<g>
			<path d="M30.87,21.95c-0.7,0.47-1.09,1.3-1.85,1.67c-0.91,0.35-1.7,1.08-2.74,0.84c-0.17-0.02-0.17,0.25,0,0.27
				c1.03,0.25,1.83-0.44,2.73-0.81c0.86-0.37,1.25-1.24,2-1.74C31.15,22.09,31.02,21.86,30.87,21.95L30.87,21.95z"/>
		</g>
	</g>
	<g>
		<g>
			<path d="M26.47,21.86c-0.18,0.35-0.07,0.72-0.33,1.04c-0.2,0.34-0.21,0.74-0.3,1.12c-0.68,1.8-2.8,2.88-4.66,2.36
				c-0.32-0.32-0.75-0.09-1.04,0.14c-0.39,0.27-0.89,0.8-1.39,0.79c-0.17,0-0.17,0.27,0,0.27c0.69-0.01,1.18-0.66,1.75-0.98
				c0.32-0.19,0.44,0.02,0.72,0.1c0.9,0.18,1.91,0,2.77-0.31c1.12-0.62,2.15-1.7,2.25-3.02c0.08-0.27,0.28-0.45,0.36-0.71
				c0.08-0.23-0.01-0.44,0.11-0.68C26.78,21.84,26.55,21.7,26.47,21.86L26.47,21.86z"/>
		</g>
	</g>
	<g>
		<g>
			<path d="M18.33,28.2c1.24,0.74,2.12-0.77,2.9-1.49c0.13-0.11-0.06-0.3-0.19-0.19c-0.73,0.61-1.45,2.07-2.58,1.45
				C18.33,27.87,18.19,28.1,18.33,28.2L18.33,28.2z"/>
		</g>
	</g>
	<g>
		<g>
			<path d="M16.57,28.68c1.47-0.27,1.42,1.04,0.42,1.7c-0.16,0.48,0.46,0.06,0.59-0.17c-0.08-0.03-0.15-0.06-0.23-0.1
				c0.11,0.71-0.18,1.37-0.68,1.86c-0.12,0.13,0.07,0.32,0.19,0.19c0.55-0.54,0.88-1.28,0.76-2.05c-0.15-0.39-0.4,0.18-0.6,0.23
				c0.05,0.07,0.11,0.14,0.16,0.21c0.44-0.37,0.92-0.84,0.81-1.48C18.03,28.2,15.92,28.23,16.57,28.68z"/>
		</g>
	</g>
	<g>
		<g>
			<path d="M38.6,22.95c1.78-1.69,1.14-2.74,0.59-4.82c-0.08,0.03-0.16,0.07-0.25,0.1c1.34,1.69,3.63,2.59,4.33,4.82
				c0.96,0.48-1.17-2.53-1.48-2.63c-0.79-0.84-2.01-1.32-2.62-2.32c-0.06-0.14-0.3-0.04-0.25,0.1c0.24,0.58,0.29,1.18,0.4,1.78
				c0.61,1-0.22,2.06-0.92,2.77C38.29,22.88,38.48,23.07,38.6,22.95L38.6,22.95z"/>
		</g>
	</g>
	<g>
		<g>
			<path d="M35.93,14.14c-0.13,0.92-0.05,1.81,0.2,2.69c-0.04,1.57-0.91,3.03-1.61,4.39c0.16,1.04,1.72-3.04,1.75-3.36
				c0.33-1.25-0.36-2.43-0.08-3.71C36.21,13.96,35.94,13.96,35.93,14.14L35.93,14.14z"/>
		</g>
	</g>
	<g>
		<g>
			<path d="M30.67,14.26c-1.73,0.78-1.24,2.99-2.12,4.26c-0.07,0.07-0.04,0.2,0.06,0.23c1.31,0.3,2.84,0.55,3.83-0.58
				c0.11-0.13-0.06-0.31-0.19-0.19c-1.31,1.41-3.04,0.21-4.57,0.68c-0.78,0.32-1.47,0.61-2.33,0.69c-1.48,0.16-1.44-2.16-0.5-2.79
				c0.14-0.09,0.01-0.32-0.14-0.23c-0.42,0.26-0.68,0.64-0.78,1.12c-0.15,0.7,0.3,1.77-0.19,2.3c-0.53,0.58-1.58,0.76-2.33,0.76
				c-1.41,0.25-2.16-2.68-2.27-1.68c0.63,1.67,1.47,2.31,3.28,2.12c-0.02-0.08-0.05-0.17-0.07-0.25c-1.84,0.9-1.54,2.15-0.09,0.2
				c0.09-0.15-0.14-0.28-0.23-0.14c-0.25,0.4-0.55,0.69-0.96,0.93c0.05,0.07,0.11,0.14,0.16,0.21c0.1-0.36,1.74-1.08,1.18-1.23
				c-1.56,0.25-2.53-0.59-3.05-1.99c-0.08,0.05-0.16,0.09-0.23,0.14c0.35,0.58,0.71,1.6,1.39,1.86c1.19,0.3,3.06,0.02,3.69-1.15
				c0.16-1-0.49-2.32,0.63-2.98c-0.05-0.08-0.09-0.16-0.14-0.23c-0.78,0.51-0.93,1.67-0.7,2.52c0.52,1.44,2.47,0.57,3.49,0.19
				c1.7-0.78,3.25,0.81,4.94-0.86c-0.06-0.06-0.13-0.13-0.19-0.19c-0.93,1.06-2.35,0.79-3.57,0.51c0.02,0.08,0.04,0.15,0.06,0.23
				c0.9-1.3,0.38-3.4,2.07-4.22C30.96,14.41,30.82,14.17,30.67,14.26L30.67,14.26z"/>
		</g>
	</g>
	<g>
		<g>
			<path d="M23.21,20.14c-0.01,0.02-0.06,0.06-0.05,0.06c-0.01,0.01-0.02,0.01-0.02,0.02c-0.04,0.01-0.09,0.06-0.12,0.06
				c-0.23,0.07-0.38,0.27-0.58,0.39c-0.21,0.02-0.39,0.21-0.11,0.3c0.23,0,0.42-0.19,0.58-0.33c0.16-0.12,0.36-0.14,0.49-0.3
				C23.52,20.22,23.33,20.02,23.21,20.14L23.21,20.14z"/>
		</g>
	</g>
	<g>
		<g>
			<path d="M17.44,34.12c-0.78-0.46-1.63-0.33-2.48-0.52c-1.11-0.25-1.71-1.17-2.25-2.08c-0.53-0.88-1.51-1.75-1.4-2.83
				c-0.03-1.04,0.83-1.5,1.4-2.23c0.93-1.75,2.29-3.17,4.33-3.51c1.53-0.41,3.19-0.71,3.45-2.56c0.02-0.17-0.24-0.24-0.26-0.07
				c-0.57,3.13-5.47,1.68-6.94,4.75c-0.74,1.62-2.75,2.34-2.22,4.38c0.34,0.89,1.11,1.55,1.54,2.41c0.46,0.76,1,1.53,1.85,1.87
				c0.92,0.37,1.97,0.1,2.85,0.62C17.45,34.44,17.59,34.21,17.44,34.12L17.44,34.12z"/>
		</g>
	</g>
	<g>
		<g>
			<path d="M9.51,23.93c1.29,0.29,2,1.57,3.21,1.94c0.42,0.05,0.46-0.3,0.71-0.55c1.69-1.14,0.05-3.18-0.28-4.66
				c-0.73-0.56,0.59,2.27,0.6,2.55c0.53,1.18-0.07,1.45-0.76,2.25c-0.5,0.43-1.07-0.42-1.46-0.69C11.37,24.55,9.05,23.1,9.51,23.93z
				"/>
		</g>
	</g>
	<g>
		<g>
			<path d="M12.41,18.73c1.18,1.33,2.03,3.18,2.12,4.96c-0.02,0.17,0.25,0.17,0.27,0C15.24,23.14,12.65,17.38,12.41,18.73
				L12.41,18.73z"/>
		</g>
	</g>
	<g>
		<g>
			<path d="M32.51,10.67c2.37-0.61,3.82,1.65,5.73,2.47c0.17,0.05,0.24-0.21,0.07-0.26c-0.54-0.16-0.98-0.52-1.4-0.88
				c-1.21-1.09-2.81-1.96-4.47-1.59C32.27,10.44,32.35,10.7,32.51,10.67z"/>
		</g>
	</g>
	<g>
		<g>
			<path d="M28,8.79c1.13-0.37,3.86,1.97,3.43,2.99c-0.04,0.08-0.09,0.15-0.13,0.23c0.94,0.27,1.46,1.14,1.92,1.93
				c0.96,0.35-1.3-2.37-1.85-2.2c-0.12-0.03-0.24,0.14-0.13,0.23c1.27,0.37,0.11-1.6-0.31-1.94c-0.75-0.84-1.81-1.68-3-1.5
				C27.76,8.55,27.83,8.81,28,8.79z"/>
		</g>
	</g>
	<g>
		<g>
			<path d="M27.4,12.2c0.18,0.19,0.28,0.59,0,0.74c-0.15,0.08-0.01,0.32,0.13,0.23c0.22-0.09,1.94-0.88,1.2-0.98
				c-0.42,0.3-0.86,0.55-1.33,0.75c0.05,0.08,0.09,0.16,0.14,0.23C28.34,12.81,27.37,11.42,27.4,12.2L27.4,12.2z"/>
		</g>
	</g>
	<g>
		<g>
			<path d="M21.3,9.73c0.61-0.43,1.66-0.33,1.82,0.51c0.17,0.36,0.79-0.7,1.16-0.74c0.16-0.08,0.02-0.3-0.14-0.23
				c-1.72,0.52-0.77,3.84-2.04,3.18c-0.05,0.07-0.1,0.13-0.15,0.2c0.83-0.03,0.95,0.79,0.96,1.44c0.49,0.6,0.18-1.09,0.02-1.25
				c-0.07-0.26-1.15-0.73-1.06-0.26c0.48,0.59,1.28-0.04,1.27-0.66c0.08-0.91,0.16-2.02,1.13-2.42c-0.04-0.07-0.09-0.15-0.13-0.23
				c-0.4,0.21-0.73,0.5-1.01,0.86c0.08,0.01,0.16,0.02,0.25,0.03C23.07,8.46,20.36,9.55,21.3,9.73z"/>
		</g>
	</g>
	<g>
		<g>
			<path d="M38.95,12.36c1.98,1.57,4.16,2.99,5.4,5.25c0.09,0.33-0.21,0.56-0.36,0.82c-0.18,0.32-0.28,0.67-0.33,1.03
				c0.19,0.76,0.65-1.29,0.95-1.45c-0.08,0-0.16,0-0.23,0c0.84,1.31,1.06,1.6,0.29,3.05c0.07-0.03,0.13-0.05,0.2-0.08
				c-0.35-0.27-0.7-0.54-1.05-0.81c-0.05,0.08-0.09,0.16-0.14,0.23c0.7,0.45,1.07,1.14,1.05,1.97c0.09-0.01,0.18-0.02,0.27-0.04
				c-0.05-0.33-0.27-2.29,0.54-1.89c0.31,0.15,0.05,1.1,0.08,1.35c1.19,1.75,0.35,3.95-1.29,5.09c-0.5,0.11-0.95,2.19-0.35,1.65
				c-0.03-1.19,0.93-1.67,1.62-2.44c0.79-1.09,1.2-2.69,0.52-3.91c-0.35-0.76-0.04-1.56-0.55-2.28c-0.03-0.06-0.13-0.09-0.18-0.05
				c-0.84,0.63-0.79,1.61-0.65,2.56c0.02,0.15,0.26,0.11,0.27-0.04c0.02-0.93-0.4-1.7-1.18-2.2c-0.15-0.1-0.27,0.13-0.14,0.23
				c0.31,0.13,0.99,1.04,1.25,0.73c0.92-1.5,0.56-1.88-0.32-3.26c-0.4-0.27-0.84,1.25-0.95,1.58c0.09,0.02,0.17,0.05,0.26,0.07
				c0-1.07,1.44-1.55,0.32-2.5c-1.25-2.11-3.3-3.3-5.12-4.85C39.01,12.05,38.82,12.24,38.95,12.36L38.95,12.36z"/>
		</g>
	</g>
	<g>
		<g>
			<path d="M19.99,16.24c-0.55-1.12-1.3-2.02-2.31-2.75c-0.05,0.08-0.09,0.16-0.14,0.23c0.35,0.06,1.23,1.29,1.35,0.82
				c-0.1-4.84,4.8-3.69,0.24-6.02c0,0.09,0,0.17,0,0.26c1.27-0.42,2.73-1.37,4-0.41c0.01-0.08,0.02-0.16,0.03-0.25
				c-0.25-0.04-2.09,0.63-1.27,0.75c1.07-0.57,2.61-0.77,3.15,0.65c0.05,0.13,0.27,0.13,0.27-0.04c-0.02-0.47-0.26-0.46-0.43-0.83
				c-0.32-0.13-0.32-0.29-0.02-0.49c1.1-1.23,3.17-0.41,4.6-0.25c3.89,0.29,7.62,2.39,10.29,5.17c0.11,0.14,0.3-0.06,0.19-0.19
				c-2.4-2.59-5.83-4.5-9.32-5.11c-1.95-0.25-4.91-1.38-6.34,0.45c-0.06,0.55,0.73,0.65,0.75,1.25c0.09-0.01,0.18-0.02,0.27-0.04
				c-0.59-1.55-2.28-1.49-3.55-0.81c0.05,0.08,0.09,0.16,0.14,0.23c0.22-0.32,1.72-0.39,1.37-0.74c-1.34-1.02-2.84-0.06-4.21,0.39
				c-0.13,0.04-0.12,0.21,0,0.26c3.98,1.73-0.63,1.21-0.44,5.76c0.08-0.03,0.15-0.06,0.23-0.1c-0.14-0.19-1.54-1.48-1.32-0.73
				c0.97,0.71,1.69,1.58,2.21,2.66C19.83,16.53,20.06,16.39,19.99,16.24L19.99,16.24z"/>
		</g>
	</g>
	<g>
		<g>
			<path d="M16.26,20.6c-0.07-1-0.14-2.04-0.54-2.98c-0.24-0.55-0.76-1.01-0.81-1.62c0.02-0.64,0.15-1.28,0.03-1.92
				c-0.35-1.44,0.32-1.89,1.08-2.93c0.37-1.79,1.16-1.94,2.82-2.32c0.17-0.05,0.09-0.31-0.07-0.26c-1.32,0.28-2.89,0.71-2.94,2.34
				c-1.53,1.92-1.27,1.84-1.12,4.23c-0.41,1.34,0.72,2.14,1,3.35C15.92,18.77,15.83,21.29,16.26,20.6L16.26,20.6z"/>
		</g>
	</g>
	<g>
		<g>
			<path d="M6.59,15.53c2.01,0.51,2.62-2.52,4.53-2.57c0.84,0.09,1.23-0.47,1.89-0.8c0.53-0.14,1.24-0.21,1.62,0.28
				c0.1,0.14,0.34,0,0.23-0.14c-0.56-0.73-1.61-0.57-2.35-0.24c-0.42,0.61-1.11,0.62-1.78,0.67c-1.58,0.24-2.45,2.98-4.07,2.54
				C6.49,15.24,6.42,15.5,6.59,15.53z"/>
		</g>
	</g>
	<g>
		<g>
			<path d="M7.53,21.58c3.6-1.27,1.29-2.53,3.66-4.21c1.19-0.53,2.55-0.19,3.73-0.71c0.16-0.08,0.02-0.31-0.14-0.23
				c-2.45,0.69-4.76-0.12-5.27,3.29C9.67,20.74,6.55,21.41,7.53,21.58z"/>
		</g>
	</g>
	<g>
		<g>
			<path d="M12.64,13.83c1.4-0.08,2.75,0.9,1.95,2.38c0.07-0.01,0.14-0.02,0.21-0.03c-0.13-1.72-2.11-1.58-1.47-1.16
				c1.39-0.13,0.97,1.74,1.49,1.33C16.23,13.58,11.92,13.22,12.64,13.83z"/>
		</g>
	</g>
	<g>
		<g>
			<path d="M16.22,9.61c-0.58,0.27-0.52-0.38-0.86-0.44c-0.83-0.29-1.71,0.68-2.35,1.12c-1.48,1.05-3.33,1.14-4.79,2.27
				c-0.73,0.57-1.24,1.42-2.07,1.83c-1.99,0.71-3.44,2.78-4.01,4.74c-0.13,1.35-0.21,2.69,0.09,4.04c0.19,0.86-0.13,1.71,0.23,2.54
				c2.19,3.11,5.86,5.55,9.75,5.65c0.17,0.02,0.17-0.25,0-0.27c-3.49-0.06-6.44-2.1-8.81-4.52c-0.71-0.75-0.85-1.43-0.8-2.41
				c0.03-0.64-0.2-1.14-0.29-1.75c-0.09-0.6,0.19-1.16,0.16-1.75c-0.46-1.92,0.94-3.59,2.08-4.98c0.62-0.64,1.3-0.74,2.02-1.17
				c0.52-0.3,0.84-0.86,1.27-1.27c1.12-1.16,2.68-1.55,4.15-2.02c0.94-0.39,1.64-1.2,2.54-1.65c1.6-0.54,0.48-0.05,1.07,0.17
				c0.36,0.14,0.39,0.27,0.76,0.1C16.51,9.77,16.37,9.54,16.22,9.61L16.22,9.61z"/>
		</g>
	</g>
	<g>
		<g>
			<path d="M5.96,24.55c1.25,0.59,0.52,2.72,1.83,3.3c0.02-0.08,0.05-0.17,0.07-0.25c-0.59-0.02-1.29,0.3-1.83,0.01
				C5.25,27,4.27,26.43,4.07,25.36c-0.21-0.26,0.18-2.24-0.32-1.72c-0.57,1.79,0.7,3.15,2.09,4.07c0.06,0.13-0.14,0.18-0.22,0.24
				c-0.15,0.11-0.25,0.28-0.3,0.46c-0.04,0.17,0.22,0.24,0.26,0.07c0.05-0.38,0.72-0.4,0.56-0.83C4.86,26.6,3.43,25.64,4,23.72
				c-0.09-0.01-0.18-0.02-0.27-0.04c-0.22,1.44,0.23,2.92,1.53,3.7c0.43,0.36,0.89,0.8,1.5,0.6c0.23-0.09,1.48,0.06,1.17-0.35
				C6.7,27,7.44,24.71,5.96,24.29C5.78,24.28,5.78,24.55,5.96,24.55z"/>
		</g>
	</g>
	<g>
		<g>
			<path d="M2.33,21.23c0.33-0.39,0.77-0.64,1.09-1.03c0.15-0.15,0.77-2.04,0.2-1.51c-0.14,0.46-0.18,0.97-0.44,1.38
				C3.08,20.28,1.52,21.31,2.33,21.23L2.33,21.23z"/>
		</g>
	</g>
	<g>
		<g>
			<path d="M3.08,17.9c0.18-0.15,2.27-0.85,1.45-0.97C4.35,17.08,2.27,17.78,3.08,17.9z"/>
		</g>
	</g>
	<g>
		<g>
			<path d="M6.73,14.19c-1.35,1.1-0.6,2.88-1.12,4.27c-0.08,0.15,0.15,0.29,0.23,0.14c0.58-1.36-0.22-3.11,1.08-4.21
				C7.05,14.26,6.86,14.07,6.73,14.19L6.73,14.19z"/>
		</g>
	</g>
</g>
</svg>
